<?xml version="1.0" standalone="no"?>
<!DOCTYPE svg PUBLIC "-//W3C//DTD SVG 20010904//EN"
 "http://www.w3.org/TR/2001/REC-SVG-20010904/DTD/svg10.dtd">
<svg version="1.0" xmlns="http://www.w3.org/2000/svg"
 width="457.000000pt" height="173.000000pt" viewBox="0 0 457.000000 173.000000"
 preserveAspectRatio="xMidYMid meet">
<metadata>
Created by potrace 1.15, written by Peter Selinger 2001-2017
</metadata>
<g transform="translate(0.000000,173.000000) scale(0.100000,-0.100000)"
fill="#000000" stroke="none">
<path d="M1065 1616 c-40 -17 -84 -63 -101 -103 -11 -26 -14 -150 -14 -640 0
-590 1 -608 20 -649 12 -24 39 -54 62 -70 l41 -29 1301 0 1301 0 36 24 c20 14
47 41 60 60 l24 35 3 605 c2 333 0 621 -3 639 -8 42 -59 100 -110 123 -38 18
-103 19 -1315 18 -1035 0 -1281 -2 -1305 -13z m635 -223 l0 -108 70 108 70
107 50 0 c27 0 50 -3 50 -6 0 -3 -27 -44 -61 -90 -33 -47 -59 -90 -56 -97 3
-7 37 -66 75 -132 l70 -120 -40 -3 c-22 -2 -46 -1 -53 2 -7 2 -34 43 -60 90
-27 47 -52 86 -55 86 -4 0 -19 -17 -34 -38 -20 -29 -26 -50 -26 -90 l0 -52
-45 0 -45 0 0 225 0 225 45 0 45 0 0 -107z m515 -29 c52 -25 68 -65 64 -167
-4 -79 -6 -89 -31 -114 -24 -23 -38 -28 -98 -31 -68 -4 -70 -4 -104 30 -72 72
-57 241 26 281 42 21 101 21 143 1z m362 3 l22 -12 -23 -30 c-18 -22 -32 -30
-61 -31 -20 0 -41 -7 -46 -15 -5 -8 -9 -62 -9 -121 l0 -108 -50 0 -50 0 0 160
0 160 50 0 c41 0 50 -3 50 -17 0 -11 3 -14 8 -7 21 32 72 42 109 21z m249 -3
c41 -19 74 -83 74 -142 l0 -42 -99 0 c-96 0 -99 -1 -94 -21 9 -32 47 -45 96
-31 39 10 44 9 66 -13 l24 -23 -34 -21 c-41 -25 -126 -28 -169 -6 -55 28 -81
117 -60 203 22 94 110 137 196 96z m339 2 c54 -23 65 -57 65 -196 l0 -120 -40
0 c-22 0 -40 5 -40 10 0 7 -6 7 -19 0 -11 -5 -43 -10 -71 -10 -66 0 -100 30
-100 89 0 22 3 47 6 56 11 27 60 45 124 45 51 0 60 3 60 18 0 10 -5 23 -12 30
-14 14 -72 16 -97 2 -14 -7 -23 -4 -41 15 -26 27 -20 42 24 61 41 17 98 18
141 0z m-1255 -676 l0 -40 -105 0 -105 0 0 -50 0 -50 90 0 90 0 0 -45 0 -45
-90 0 -90 0 0 -50 0 -50 105 0 105 0 0 -40 0 -40 -150 0 -150 0 0 225 0 225
150 0 150 0 0 -40z m224 -101 c21 -17 26 -18 26 -5 0 12 10 16 40 16 l40 0 0
-180 c0 -139 -3 -188 -15 -209 -28 -56 -130 -78 -201 -45 -41 19 -42 33 -9 64
20 18 28 21 37 12 17 -17 68 -15 90 5 10 9 18 27 18 40 0 23 -1 23 -22 9 -31
-22 -90 -20 -121 4 -49 38 -60 193 -20 261 30 51 92 63 137 28z m350 0 c21
-17 26 -18 26 -5 0 12 10 16 40 16 l40 0 0 -180 c0 -139 -3 -188 -15 -209 -28
-56 -130 -78 -201 -45 -41 19 -42 33 -9 64 20 18 28 21 37 12 17 -17 68 -15
90 5 10 9 18 27 18 40 0 23 -1 23 -22 9 -31 -22 -90 -20 -121 4 -49 38 -60
193 -20 261 30 51 92 63 137 28z"/>
<path d="M2112 1284 c-18 -12 -22 -25 -22 -65 0 -66 13 -89 50 -89 42 0 60 23
60 81 0 36 -5 54 -20 69 -24 24 -38 25 -68 4z"/>
<path d="M2076 514 c-11 -10 -16 -34 -16 -74 0 -52 3 -62 25 -76 23 -15 27
-15 50 0 22 14 25 24 25 76 0 62 -15 90 -50 90 -10 0 -26 -7 -34 -16z"/>
<path d="M2426 514 c-11 -10 -16 -34 -16 -74 0 -52 3 -62 25 -76 23 -15 27
-15 50 0 22 14 25 24 25 76 0 62 -15 90 -50 90 -10 0 -26 -7 -34 -16z"/>
</g>
</svg>
