<?xml version="1.0" standalone="no"?>
<!DOCTYPE svg PUBLIC "-//W3C//DTD SVG 20010904//EN"
 "http://www.w3.org/TR/2001/REC-SVG-20010904/DTD/svg10.dtd">
<svg version="1.0" xmlns="http://www.w3.org/2000/svg"
 width="457.000000pt" height="173.000000pt" viewBox="0 0 457.000000 173.000000"
 preserveAspectRatio="xMidYMid meet">
<metadata>
Created by potrace 1.15, written by Peter Selinger 2001-2017
</metadata>
<g transform="translate(0.000000,173.000000) scale(0.100000,-0.100000)"
fill="#000000" stroke="none">
<path d="M160 1000 l0 -340 65 0 65 0 0 73 c0 71 1 73 51 141 l51 69 80 -142
80 -141 74 0 c41 0 74 2 74 5 0 3 -49 91 -110 196 -60 105 -110 194 -110 198
0 5 43 68 95 140 52 72 95 133 95 136 0 3 -35 5 -78 5 l-78 0 -109 -167 -110
-168 -3 168 -2 167 -65 0 -65 0 0 -340z"/>
<path d="M2730 1000 l0 -340 230 0 230 0 0 60 0 60 -165 0 -165 0 0 80 0 80
140 0 140 0 0 60 0 60 -140 0 -140 0 0 80 0 80 165 0 165 0 0 60 0 60 -230 0
-230 0 0 -340z"/>
<path d="M859 1127 c-63 -33 -91 -88 -97 -190 -10 -166 39 -253 154 -277 110
-23 206 18 245 105 26 57 26 223 0 280 -10 22 -27 48 -37 57 -60 53 -189 65
-265 25z m165 -118 c24 -19 26 -26 26 -105 0 -101 -15 -124 -79 -124 -60 0
-81 32 -81 127 0 65 3 77 25 98 30 31 73 32 109 4z"/>
<path d="M1300 905 l0 -245 65 0 65 0 0 144 c0 78 5 157 10 173 14 40 49 57
98 50 37 -6 40 -5 72 40 l33 46 -22 19 c-16 12 -39 18 -73 18 -44 0 -54 -4
-84 -34 l-34 -34 0 34 0 34 -65 0 -65 0 0 -245z"/>
<path d="M1804 1131 c-77 -35 -114 -110 -114 -231 0 -86 14 -133 53 -177 36
-41 71 -58 139 -68 56 -8 145 15 183 48 l26 22 -40 39 c-38 37 -40 38 -62 22
-23 -16 -102 -22 -134 -10 -14 6 -45 53 -45 69 0 3 68 5 151 5 l152 0 -7 72
c-14 152 -81 228 -201 228 -37 0 -76 -8 -101 -19z"/>
<path d="M2285 1131 c-22 -10 -47 -26 -54 -35 -13 -16 -11 -21 25 -52 23 -20
45 -31 54 -27 96 38 170 20 170 -43 0 -23 -2 -24 -77 -24 -122 -1 -181 -30
-204 -97 -29 -90 24 -185 112 -198 51 -8 124 8 152 32 16 15 17 14 17 -5 0
-20 5 -22 60 -22 l60 0 0 178 c0 164 -2 181 -22 222 -32 63 -88 90 -183 90
-46 0 -84 -7 -110 -19z"/>
<path d="M3360 1128 c-52 -36 -72 -86 -78 -193 -6 -114 10 -185 50 -231 56
-63 160 -67 207 -7 l21 26 0 -40 c0 -83 -73 -124 -149 -85 l-39 20 -36 -37
c-20 -20 -36 -42 -36 -49 0 -6 21 -24 47 -39 41 -24 59 -28 123 -28 96 1 153
29 190 95 25 45 25 48 28 318 l3 272 -65 0 -66 0 0 -31 0 -31 -35 31 c-46 40
-114 43 -165 9z m187 -128 c7 -14 13 -60 13 -103 0 -69 -3 -81 -25 -102 -31
-32 -69 -32 -100 0 -22 21 -25 33 -25 100 0 110 17 137 85 133 31 -2 42 -9 52
-28z"/>
<path d="M3880 1128 c-52 -36 -72 -86 -78 -193 -6 -114 10 -185 50 -231 56
-63 160 -67 207 -7 l21 26 0 -40 c0 -83 -73 -124 -149 -85 l-39 20 -36 -37
c-20 -20 -36 -42 -36 -49 0 -6 21 -24 47 -39 41 -24 59 -28 123 -28 96 1 153
29 190 95 25 45 25 48 28 318 l3 272 -65 0 -66 0 0 -31 0 -31 -35 31 c-46 40
-114 43 -165 9z m187 -128 c7 -14 13 -60 13 -103 0 -69 -3 -81 -25 -102 -31
-32 -69 -32 -100 0 -22 21 -25 33 -25 100 0 110 17 137 85 133 31 -2 42 -9 52
-28z"/>
</g>
</svg>
